<svg width="20" height="20" viewBox="0 0 20 20" fill="none" xmlns="http://www.w3.org/2000/svg">
    <path d="M10 18C14.4183 18 18 14.4183 18 10C18 5.58172 14.4183 2 10 2C5.58172 2 2 5.58172 2 10C2 14.4183 5.58172 18 10 18Z" stroke="currentColor" stroke-width="1.5" stroke-linecap="round" stroke-linejoin="round"/>
    <path d="M7.57 7.00002C7.71669 6.6801 7.96093 6.41212 8.26826 6.23587C8.57558 6.05961 8.93106 5.98315 9.28792 6.01517C9.64478 6.04719 9.98382 6.18595 10.2555 6.41333C10.5271 6.64071 10.7177 6.94619 10.8 7.28502C10.8 8.00002 10 8.50002 10 8.50002M10 11.5H10.01" stroke="currentColor" stroke-width="1.5" stroke-linecap="round" stroke-linejoin="round"/>
</svg> 